<?xml version="1.0" encoding="utf-8"?><!-- Uploaded to: SVG Repo, www.svgrepo.com, Generator: SVG Repo Mixer Tools -->
<svg fill="#000000" width="800px" height="800px" viewBox="0 0 24 24" id="calendar-event-left" data-name="Flat Line" xmlns="http://www.w3.org/2000/svg" class="icon flat-line"><path id="secondary" d="M3,9V19H5v2H20a1,1,0,0,0,1-1V9Z" style="fill: rgb(44, 169, 188); stroke-width: 2;"></path><path id="primary" d="M5,19v2L3,19ZM3,5V19l2,2H20a1,1,0,0,0,1-1V5a1,1,0,0,0-1-1H4A1,1,0,0,0,3,5ZM3,5V9H21V5a1,1,0,0,0-1-1H4A1,1,0,0,0,3,5ZM7,5V3m5,2V3m5,2V3" style="fill: none; stroke: rgb(0, 0, 0); stroke-linecap: round; stroke-linejoin: round; stroke-width: 2;"></path></svg>